<svg xmlns="http://www.w3.org/2000/svg" viewBox="0 0 64 64" role="img" aria-label="CarbonLens">
  <defs>
    <linearGradient id="bg" x1="10" x2="54" y1="8" y2="58" gradientUnits="userSpaceOnUse">
      <stop stop-color="#12352a"/>
      <stop offset="1" stop-color="#06120f"/>
    </linearGradient>
    <linearGradient id="leaf" x1="18" x2="47" y1="18" y2="47" gradientUnits="userSpaceOnUse">
      <stop stop-color="#9ff8d9"/>
      <stop offset="0.52" stop-color="#14b87b"/>
      <stop offset="1" stop-color="#047857"/>
    </linearGradient>
  </defs>
  <rect width="64" height="64" rx="14" fill="url(#bg)"/>
  <path fill="url(#leaf)" d="M17.8 35.2c0-12.6 11.6-21.4 30.7-22.2 1.3 18.6-7.7 30.3-20 30.3-3.2 0-6.1-.8-8.5-2.4 2.7-5.6 7.7-10.9 15.1-15.9-8.4 2.9-14.7 7.4-18.8 13.5a14.7 14.7 0 0 1 1.5-3.3Z"/>
  <circle cx="33" cy="33" r="17.5" fill="none" stroke="#f7fff9" stroke-opacity=".92" stroke-width="4"/>
  <path fill="none" stroke="#f7fff9" stroke-linecap="round" stroke-width="5" d="m45.5 46.5 7.5 7.5"/>
  <path fill="#8bd7ff" d="M19.7 50.8h19.6c1.2 0 1.9 1.4 1.2 2.4l-3.1 4.2H16.6l3.1-6.6Z"/>
  <path fill="#f7fff9" d="M18.5 18.8c0-1 .8-1.8 1.8-1.8h3.4c1 0 1.8.8 1.8 1.8v2.7c0 1-.8 1.8-1.8 1.8h-3.4c-1 0-1.8-.8-1.8-1.8v-2.7Zm2.3 16.7c0-.9.7-1.6 1.6-1.6h2.1c.9 0 1.6.7 1.6 1.6v2.1c0 .9-.7 1.6-1.6 1.6h-2.1c-.9 0-1.6-.7-1.6-1.6v-2.1Z" opacity=".9"/>
</svg>
